<?xml version="1.0" standalone="no"?>
<!DOCTYPE svg PUBLIC "-//W3C//DTD SVG 20010904//EN"
 "http://www.w3.org/TR/2001/REC-SVG-20010904/DTD/svg10.dtd">
<svg version="1.0" xmlns="http://www.w3.org/2000/svg"
 width="512.000000pt" height="512.000000pt" viewBox="0 0 512.000000 512.000000"
 preserveAspectRatio="xMidYMid meet">

<g transform="translate(0.000000,512.000000) scale(0.100000,-0.100000)"
fill="#000000" stroke="none">
<path d="M2085 4786 c-245 -49 -448 -189 -573 -397 -72 -119 -122 -278 -122
-388 l0 -48 -182 -5 c-212 -6 -268 -20 -380 -95 -103 -68 -168 -151 -208 -268
-15 -42 -67 -430 -185 -1376 -91 -725 -165 -1340 -165 -1366 1 -239 195 -468
435 -513 43 -8 387 -10 1189 -8 l1130 3 -43 28 c-68 45 -209 185 -272 270
-438 587 -295 1415 314 1826 136 91 289 155 467 193 106 23 354 28 445 10 27
-6 51 -9 52 -8 2 1 -22 200 -52 442 -36 290 -62 460 -75 499 -55 160 -171 276
-334 333 -63 22 -92 26 -252 30 l-181 5 -6 76 c-18 222 -146 456 -325 592 -80
61 -223 131 -312 154 -90 22 -277 28 -365 11z m323 -222 c92 -24 205 -90 276
-160 109 -108 166 -222 189 -375 l11 -79 103 0 103 0 0 -335 c0 -225 -4 -342
-11 -359 -28 -60 -122 -71 -170 -20 l-24 26 -3 344 -3 344 -639 0 -639 0 -3
-344 -3 -344 -24 -26 c-48 -51 -142 -40 -170 20 -7 17 -11 134 -11 359 l0 335
105 0 105 0 0 31 c0 55 32 173 65 244 90 186 275 323 480 354 72 11 188 4 263
-15z"/>
<path d="M3543 2435 c-380 -69 -694 -340 -819 -709 -78 -227 -72 -497 16 -723
55 -144 124 -247 245 -368 123 -123 220 -187 367 -242 143 -54 215 -66 388
-66 136 0 167 3 255 26 310 83 558 286 697 572 277 572 -5 1251 -610 1469
-150 54 -375 71 -539 41z m240 -636 c46 -21 57 -56 57 -188 l0 -121 120 0 c66
0 130 -5 144 -11 60 -28 71 -122 20 -170 -24 -22 -34 -24 -154 -27 l-128 -4
-4 -128 c-3 -120 -5 -130 -27 -154 -48 -51 -142 -40 -170 20 -6 14 -11 78 -11
144 l0 120 -121 0 c-95 0 -127 4 -149 17 -55 32 -67 112 -26 160 24 28 27 28
158 33 l133 5 5 133 c5 131 5 134 33 158 31 26 80 32 120 13z"/>
</g>
</svg>
