<svg id="Layer_1_1_" enable-background="new 0 0 64 64" height="512" viewBox="0 0 64 64" width="512" xmlns="http://www.w3.org/2000/svg"><path d="m27.208 20.611 3.655 8.59.605-5.357.008.001c.014-.128.046-.254.11-.37.087-.159.215-.285.366-.375l-1.049-9.292z"/><path d="m21.04 16.76 4.651 2.453 4.226-7.784-5.613-.388z"/><path d="m17.407 15.176-9.511 9.934-2.044 3.581 3.488-2.197 9.512-9.935 2.043-3.581z"/><path d="m30.719 48.302 6.073-14.273-3.694-6.803z"/><path d="m51.711 46.629 7.594 4.561.631-5.591-5.572-3.509z"/><path d="m34.083 24.847 4.226 7.784 4.651-2.453-3.264-5.719z"/><path d="m46.593 28.594-3.489-2.197 2.044 3.581 9.512 9.934 3.489 2.197-2.045-3.581z"/><path d="m9.636 28.671-5.572 3.51.631 5.59 7.594-4.56z"/><path d="m35.723 53.531 21.162-1.461-6.637-3.986z"/><path d="m15.421 33.156 14.386 5.394.6-5.31-4.635-10.895z"/><path d="m44.14 31.816-4.599 2.426 10.614 11.086 2.624-4.489z"/><path d="m38.228 35.763-7.437 17.481 17.788-6.67z"/><path d="m24.459 20.824-4.599-2.426-8.639 9.023 2.624 4.489z"/><path d="m28.276 40.112-14.525-5.446-6.636 3.985z"/><path d="m42 11v2h-2v2h2v2h2v-2h2v-2h-2v-2z"/><path d="m45 19h2v2h-2z"/><path d="m10 47v2h-2v2h2v2h2v-2h2v-2h-2v-2z"/><path d="m13 43h2v2h-2z"/><path d="m57 25h2v2h-2z"/></svg>