<svg id="Icons" height="512" viewBox="0 0 64 64" width="512" xmlns="http://www.w3.org/2000/svg"><path d="m50 54.709a6.6 6.6 0 0 0 -4.709-4.709 6.6 6.6 0 0 0 4.709-4.709 6.6 6.6 0 0 0 4.709 4.709 6.6 6.6 0 0 0 -4.709 4.709z"/><path d="m19 9.291c.088.261.184.5.281.733 0 .007 0 .015.005.022l.008.011a6.451 6.451 0 0 0 4.415 3.943 6.6 6.6 0 0 0 -4.709 4.709 8.318 8.318 0 0 0 -1.221-2.421 6.854 6.854 0 0 0 -3.488-2.288 6.6 6.6 0 0 0 4.709-4.709z"/><path d="m45.927 52.447a16.815 16.815 0 0 0 -5.119-1.465.925.925 0 0 1 -.2-.075 31.479 31.479 0 0 1 -7.668 3.925 2.749 2.749 0 0 1 -.949.169 2.808 2.808 0 0 1 -.967-.173 30.455 30.455 0 0 1 -12.524-8.174c-8.04-8.764-8.754-20.386-8.464-26.533a3.083 3.083 0 0 1 2.315-2.853c.91-.225 1.8-.479 2.689-.746a15.924 15.924 0 0 0 -5.235-1.541.989.989 0 0 1 -.773-.724c-.565.117-1.129.238-1.7.336a.973.973 0 0 0 -.812.835c-.75 4.961-2.313 22.12 9.032 34.577a34.982 34.982 0 0 0 16.17 9.953.838.838 0 0 0 .51 0 35.446 35.446 0 0 0 13.695-7.511z"/><path d="m21.541 10.1c.747 1.184 1.85 1.8 3.769 2.307 1.784-.923 3.5-1.907 5.1-2.937a2.9 2.9 0 0 1 3.163 0 60.236 60.236 0 0 0 10.6 5.421 59.966 59.966 0 0 0 7.457 2.38 3.081 3.081 0 0 1 2.318 2.848c.221 4.686-.151 12.542-3.887 19.9a.993.993 0 0 1 .921.807 23.027 23.027 0 0 0 1.092 4.344c7.158-11.4 6.183-24.49 5.387-29.733a.969.969 0 0 0 -.8-.833 56.538 56.538 0 0 1 -11.025-3.1 56.376 56.376 0 0 1 -13.066-7.304.953.953 0 0 0 -1.159 0 56.425 56.425 0 0 1 -9.87 5.9z"/><path d="m48.706 42.394a29.185 29.185 0 0 1 -3.219 4.262c-.556.607-1.143 1.179-1.744 1.736 3.27-.871 4.14-2.092 4.963-5.998z"/><path d="m12.049 20.221c-.275 5.831.39 16.851 7.938 25.082a28.492 28.492 0 0 0 11.725 7.642.781.781 0 0 0 .565 0 28.5 28.5 0 0 0 11.736-7.645c7.549-8.231 8.214-19.251 7.938-25.088a1.085 1.085 0 0 0 -.806-1.007 61.939 61.939 0 0 1 -7.7-2.459 62.274 62.274 0 0 1 -10.945-5.596.908.908 0 0 0 -1 0c-1.018.658-2.093 1.292-3.192 1.912a.99.99 0 0 1 .692.938 1 1 0 0 1 -.819.984c-6.34 1.167-7.03 1.857-8.2 8.2a1 1 0 0 1 -1.967 0 17.4 17.4 0 0 0 -1.414-5.051c-1.222.393-2.472.76-3.744 1.076a1.086 1.086 0 0 0 -.807 1.012zm8.862 10.536 1.252-1.278a3.179 3.179 0 0 1 4.45 0l3.387 3.458a1.13 1.13 0 0 0 1.592 0l9.8-10a3.094 3.094 0 0 1 2.221-.937 3.09 3.09 0 0 1 2.224.939l1.252 1.278a3.222 3.222 0 0 1 0 4.483l-14.068 14.359a3.106 3.106 0 0 1 -4.45 0l-7.66-7.819a3.222 3.222 0 0 1 0-4.483z"/><path d="m30 41.662a1.132 1.132 0 0 0 1.592 0l14.068-14.362a1.209 1.209 0 0 0 0-1.684l-1.251-1.278a1.107 1.107 0 0 0 -1.593 0l-9.8 10a3.18 3.18 0 0 1 -4.45 0l-3.382-3.458a1.134 1.134 0 0 0 -1.593 0l-1.251 1.278a1.209 1.209 0 0 0 0 1.684z"/></svg>